<?xml version="1.0" encoding="iso-8859-1"?>
<!-- Generator: Adobe Illustrator 19.0.0, SVG Export Plug-In . SVG Version: 6.00 Build 0)  -->
<svg version="1.1" id="Capa_1" xmlns="http://www.w3.org/2000/svg" xmlns:xlink="http://www.w3.org/1999/xlink" x="0px" y="0px"
	 viewBox="0 0 512 512" style="enable-background:new 0 0 512 512;" xml:space="preserve">
<path style="fill:#1689FC;" d="M226,482H75c-8.291,0-15-6.709-15-15s6.709-15,15-15h151c8.291,0,15,6.709,15,15S234.291,482,226,482
	z"/>
<path style="fill:#136EF1;" d="M437,482H286c-8.291,0-15-6.709-15-15s6.709-15,15-15h151c8.291,0,15,6.709,15,15
	S445.291,482,437,482z"/>
<path style="fill:#1689FC;" d="M271,375v62c0,8.399-6.599,15-15,15s-15-6.601-15-15v-62c0-8.401,6.599-15,15-15S271,366.599,271,375
	z"/>
<path style="fill:#136EF1;" d="M271,375v62c0,8.399-6.599,15-15,15v-92C264.401,360,271,366.599,271,375z"/>
<path style="fill:#00C8C8;" d="M256,422c-24.901,0-45,20.099-45,45c0,24.899,20.099,45,45,45s45-20.101,45-45
	C301,442.099,280.901,422,256,422z"/>
<path style="fill:#00A1B2;" d="M467,512c-24.814,0-45-20.186-45-45s20.186-45,45-45s45,20.186,45,45S491.814,512,467,512z"/>
<path style="fill:#BFE1FF;" d="M467,482c-8.271,0-15-6.729-15-15s6.729-15,15-15s15,6.729,15,15S475.271,482,467,482z"/>
<path style="fill:#00C8C8;" d="M45,512c-24.814,0-45-20.186-45-45s20.186-45,45-45s45,20.186,45,45S69.814,512,45,512z"/>
<path style="fill:#E1F1FA;" d="M45,482c-8.271,0-15-6.729-15-15s6.729-15,15-15s15,6.729,15,15S53.271,482,45,482z"/>
<g>
	<path style="fill:#0053BF;" d="M467,120H45c-8.401,0-15,6.599-15,15v60c0,8.399,6.599,15,15,15h422c8.401,0,15-6.601,15-15v-60
		C482,126.599,475.401,120,467,120z"/>
	<path style="fill:#0053BF;" d="M467,300H45c-8.401,0-15,6.599-15,15v30c0,24.899,20.099,45,45,45h362c24.901,0,45-20.101,45-45v-30
		C482,306.599,475.401,300,467,300z"/>
</g>
<path style="fill:#65B1FC;" d="M467,180H45c-24.901,0-45,20.099-45,45v60c0,24.899,20.099,45,45,45h422c24.901,0,45-20.101,45-45
	v-60C512,200.099,491.901,180,467,180z"/>
<path style="fill:#00A1B2;" d="M301,467c0,24.899-20.099,45-45,45v-90C280.901,422,301,442.099,301,467z"/>
<path style="fill:#E1F1FA;" d="M256,482c-8.271,0-15-6.729-15-15s6.729-15,15-15s15,6.729,15,15S264.271,482,256,482z"/>
<path style="fill:#BFE1FF;" d="M271,467c0-8.271-6.729-15-15-15v30C264.271,482,271,475.271,271,467z"/>
<g>
	<path style="fill:#05377F;" d="M482,135v60c0,8.399-6.599,15-15,15H256v-90h211C475.401,120,482,126.599,482,135z"/>
	<path style="fill:#05377F;" d="M482,315v30c0,24.899-20.099,45-45,45H256v-90h211C475.401,300,482,306.599,482,315z"/>
</g>
<path style="fill:#1689FC;" d="M512,225v60c0,24.899-20.099,45-45,45H256V180h211C491.901,180,512,200.099,512,225z"/>
<path style="fill:#65B1FC;" d="M467,0H45C20.099,0,0,20.099,0,45v60c0,24.899,20.099,45,45,45h422c24.901,0,45-20.101,45-45V45
	C512,20.099,491.901,0,467,0z"/>
<path style="fill:#1689FC;" d="M512,45v60c0,24.899-20.099,45-45,45H256V0h211C491.901,0,512,20.099,512,45z"/>
<circle style="fill:#E1F1FA;" cx="75" cy="75" r="15"/>
<g>
	<circle style="fill:#0053BF;" cx="136" cy="75" r="15"/>
	<circle style="fill:#0053BF;" cx="196" cy="75" r="15"/>
</g>
<path style="fill:#05377F;" d="M437,90H286c-8.291,0-15-6.709-15-15s6.709-15,15-15h151c8.291,0,15,6.709,15,15S445.291,90,437,90z"
	/>
<circle style="fill:#E1F1FA;" cx="75" cy="255" r="15"/>
<g>
	<circle style="fill:#0053BF;" cx="136" cy="255" r="15"/>
	<circle style="fill:#0053BF;" cx="196" cy="255" r="15"/>
</g>
<path style="fill:#05377F;" d="M437,270H286c-8.291,0-15-6.709-15-15s6.709-15,15-15h151c8.291,0,15,6.709,15,15
	C452,263.291,445.291,270,437,270z"/>
<g>
</g>
<g>
</g>
<g>
</g>
<g>
</g>
<g>
</g>
<g>
</g>
<g>
</g>
<g>
</g>
<g>
</g>
<g>
</g>
<g>
</g>
<g>
</g>
<g>
</g>
<g>
</g>
<g>
</g>
</svg>
